<?xml version="1.0" standalone="no"?>
<!DOCTYPE svg PUBLIC "-//W3C//DTD SVG 20010904//EN"
 "http://www.w3.org/TR/2001/REC-SVG-20010904/DTD/svg10.dtd">
<svg version="1.0" xmlns="http://www.w3.org/2000/svg"
 width="500.000000pt" height="500.000000pt" viewBox="0 0 500.000000 500.000000"
 preserveAspectRatio="xMidYMid meet">
<metadata>
Created by potrace 1.15, written by Peter Selinger 2001-2017
</metadata>
<g transform="translate(0.000000,500.000000) scale(0.100000,-0.100000)"
fill="#000000" stroke="none">
<path d="M1742 3890 c-103 -27 -166 -64 -247 -145 -111 -110 -170 -239 -200
-435 -35 -229 -6 -455 82 -639 78 -162 209 -272 379 -315 82 -21 270 -21 349
-1 237 62 396 252 451 540 23 121 23 340 0 460 -45 234 -160 406 -329 491
-126 64 -335 83 -485 44z m320 -263 c103 -47 174 -145 215 -297 27 -100 24
-320 -6 -425 -55 -197 -165 -302 -326 -313 -173 -10 -303 104 -363 320 -13 47
-17 101 -17 218 0 135 3 165 24 230 29 95 53 141 97 190 97 108 245 138 376
77z"/>
<path d="M3215 3891 c-219 -64 -372 -237 -436 -493 -26 -107 -36 -333 -20
-449 15 -105 61 -244 108 -329 20 -36 66 -95 102 -131 109 -108 220 -149 406
-149 185 0 283 37 397 151 77 78 130 177 149 280 16 86 6 134 -36 176 -28 28
-40 33 -80 33 -39 0 -52 -5 -74 -29 -15 -16 -33 -49 -40 -73 -55 -186 -169
-288 -321 -288 -167 0 -283 117 -325 329 -26 128 -17 358 18 467 70 215 235
318 413 257 70 -24 139 -97 197 -209 25 -50 53 -97 61 -103 26 -21 90 -25 124
-7 48 25 65 66 60 150 -9 187 -195 382 -406 425 -79 16 -227 12 -297 -8z"/>
<path d="M4000 2155 l0 -55 475 0 475 0 0 55 0 55 -475 0 -475 0 0 -55z"/>
<path d="M671 1613 c-18 -9 -45 -34 -60 -56 l-26 -40 -3 -261 c-3 -255 -2
-262 20 -306 13 -25 38 -55 57 -67 l34 -23 1888 2 1888 3 35 34 c57 55 61 78
61 351 0 243 0 245 -25 290 -14 24 -40 55 -59 67 l-34 23 -1871 0 c-1719 0
-1874 -2 -1905 -17z m307 -124 c65 -14 125 -64 149 -127 24 -64 24 -190 0
-254 -52 -135 -225 -181 -331 -88 -52 46 -79 119 -79 215 0 144 55 228 168
256 43 10 39 10 93 -2z m311 -107 c16 -53 42 -141 58 -194 15 -54 31 -98 34
-98 3 0 32 88 64 195 60 203 74 228 110 201 14 -10 17 -21 12 -52 -12 -72
-135 -427 -155 -447 -23 -23 -61 -18 -78 10 -18 30 -144 429 -144 457 0 30 27
48 52 35 10 -6 29 -47 47 -107z m1671 93 c71 -37 114 -133 74 -166 -14 -12
-19 -10 -38 15 -59 78 -83 96 -126 96 -36 0 -48 -6 -75 -34 -37 -39 -45 -70
-45 -165 0 -74 25 -142 58 -160 27 -14 98 -14 124 0 11 6 31 35 44 66 20 44
28 54 46 51 78 -12 0 -173 -97 -199 -52 -14 -121 -4 -161 23 -70 48 -112 159
-101 267 7 64 51 157 88 184 63 46 146 54 209 22z m480 -5 c46 -23 64 -45 91
-105 49 -109 21 -276 -57 -345 -106 -93 -279 -47 -331 88 -23 60 -24 201 -1
253 53 121 182 168 298 109z m-1479 10 c10 -6 19 -19 19 -30 0 -31 -32 -40
-144 -40 l-106 0 0 -65 0 -65 110 0 c93 0 112 -3 117 -16 15 -39 -9 -49 -121
-52 l-106 -3 0 -74 0 -75 114 0 c91 0 118 -3 130 -16 19 -18 19 -20 6 -45 -10
-17 -23 -19 -151 -19 -78 0 -149 5 -160 10 -18 10 -19 23 -19 238 0 125 4 232
8 238 4 6 14 14 22 17 27 10 261 7 281 -3z m403 -13 c41 -27 60 -64 60 -118 0
-58 -23 -96 -76 -122 l-35 -17 33 -35 c40 -43 87 -136 82 -166 -2 -12 -11 -27
-20 -33 -24 -14 -46 9 -94 99 -53 99 -79 125 -126 125 l-38 0 0 -99 c0 -77 -4
-103 -16 -115 -19 -19 -36 -20 -52 -4 -13 13 -17 464 -4 484 13 20 37 24 148
21 85 -2 118 -7 138 -20z m1506 12 c95 -22 145 -107 145 -249 0 -73 -4 -93
-28 -142 -41 -84 -75 -102 -205 -106 -150 -6 -142 -20 -142 250 0 264 -3 258
113 258 39 0 92 -5 117 -11z m551 1 c10 -6 19 -19 19 -30 0 -31 -32 -40 -144
-40 l-106 0 0 -65 0 -65 110 0 c93 0 112 -3 117 -16 15 -39 -9 -49 -121 -52
l-106 -3 0 -74 0 -75 114 0 c91 0 118 -3 130 -16 19 -18 19 -20 6 -45 -10 -17
-23 -19 -151 -19 -78 0 -149 5 -160 10 -18 10 -19 23 -19 238 0 125 4 232 8
238 4 6 14 14 22 17 27 10 261 7 281 -3z"/>
<path d="M868 1404 c-39 -20 -60 -68 -66 -144 -5 -81 11 -145 48 -182 23 -23
37 -28 77 -28 58 0 86 17 113 70 27 53 27 168 1 227 -31 67 -108 93 -173 57z"/>
<path d="M3280 1407 c-88 -43 -94 -281 -9 -341 14 -9 43 -16 70 -16 89 0 136
78 127 212 -8 105 -52 158 -131 158 -18 0 -43 -6 -57 -13z"/>
<path d="M2150 1345 l0 -77 81 4 c90 4 109 16 109 73 0 51 -29 69 -116 73
l-74 4 0 -77z"/>
<path d="M3730 1235 l0 -175 68 0 c58 0 72 3 90 23 32 34 42 71 42 155 0 130
-35 172 -142 172 l-58 0 0 -175z"/>
</g>
</svg>
